PathFileType	4	(X/Y/Z)	Patient4_TMGait_0pt2_03_right_20.trc.trc
DataRate	CameraRate	NumFrames	NumMarkers	Units	OrigDataRate	OrigDataStartFrame	OrigNumFrames
48.275862068966	48.275862068966	4	33	mm	48.275862068966	124	       141
Frame#	Time	Sacral			L.Shoulder			Chest			R.Shoulder			Neck			R.ASIS			L.ASIS			R.Thigh.Superior			R.Thigh.Lateral			R.Thigh.Inferior			R.Patella			L.Thigh.Superior			L.Thigh.Lateral			L.Thigh.Inferior			L.Patella			L.Shank.Superior			L.Shank.Lateral			L.Shank.Inferior			R.Shank.Superior			R.Shank.Lateral			R.Shank.Inferior			R.Heel			R.Midfoot.Superior			R.Midfoot.Lateral			R.Toe			L.Heel			L.Midfoot.Lateral			L.Midfoot.Superior			L.Toe			L.Elbow			L.Wrist			R.Elbow			R.Wrist			
		X1	Y1	Z1	X2	Y2	Z2	X3	Y3	Z3	X4	Y4	Z4	X5	Y5	Z5	X6	Y6	Z6	X7	Y7	Z7	X8	Y8	Z8	X9	Y9	Z9	X10	Y10	Z10	X11	Y11	Z11	X12	Y12	Z12	X13	Y13	Z13	X14	Y14	Z14	X15	Y15	Z15	X16	Y16	Z16	X17	Y17	Z17	X18	Y18	Z18	X19	Y19	Z19	X20	Y20	Z20	X21	Y21	Z21	X22	Y22	Z22	X23	Y23	Z23	X24	Y24	Z24	X25	Y25	Z25	X26	Y26	Z26	X27	Y27	Z27	X28	Y28	Z28	X29	Y29	Z29	X30	Y30	Z30	X31	Y31	Z31	X32	Y32	Z32	X33	Y33	Z33	

124	45.497857142857	868.013111498543	1011.634814562466	441.079043192630	1117.308953302453	1434.565626163683	321.049175129487	1158.870552093829	1361.128497244744	502.515119727680	1031.468796972642	1441.603242650560	642.691259645399	1039.052144709626	1492.076611704737	466.368409732883	1061.539874210669	942.187968793751	612.739318868251	1111.624898457981	956.767507358848	343.557855232527	1124.322627432974	749.510146871236	590.708908182945	1051.277903859642	636.730622762062	652.068668060720	1138.868875662025	588.395032535969	579.287405523760	1152.220779989964	504.584464966504	591.735014322111	1125.524048560555	731.901281463750	372.063027060932	1031.437234856368	615.901166261293	285.865958901793	1103.571684666536	539.537295119174	364.596801146159	1094.634456870902	469.247347980953	369.200056978541	1056.057873896941	400.989250933765	354.256782753073	956.091206959571	303.130959757440	289.750045941784	979.009536509398	183.754434635798	359.362096947812	1129.862051080411	414.523637330121	606.949116654038	1066.210002160455	311.944591821985	680.364571903560	1117.987966207913	214.440609908505	627.507553485885	997.506020465898	39.305542788959	622.994552198491	1169.869572525615	102.386599957955	639.905506967580	1090.124754476526	35.247909961338	686.059235959342	1293.764500535917	58.313299860741	651.187243325055	830.410598303485	38.925311261709	387.062204192150	906.909356217873	35.771878136874	308.862286813882	990.453939896110	95.566021727088	340.279180056374	1119.080705628493	41.219736395060	313.512440009144	1287.651738259733	1181.520153250518	149.975287524196	1531.253928396785	1257.120727206187	184.798149664984	840.880025160144	1145.562183789585	700.847850273668	810.890838187006	883.262065146076	688.257859964091	
125	45.518571428571	869.503229012386	1010.880762351105	446.987264155693	1117.359274954925	1433.963616366376	326.797784373995	1159.796416713160	1360.784550768774	508.181741475383	1032.745928352087	1441.187785058127	648.794320219211	1039.453757191956	1491.533006946821	472.157092292856	1063.552642078933	940.975702298334	617.823419200207	1112.910640349664	956.568146874555	348.718498511457	1125.867806301444	747.698560880680	594.233504302658	1051.995832214507	634.938626770085	654.618665332272	1139.320872807635	586.905518179873	581.390898213635	1151.069613411898	503.017310155366	592.929911537097	1125.854657057987	730.860576115892	375.784465414399	1030.471902903829	616.022980260266	289.250502335726	1102.130469054173	538.621776355379	367.275666428626	1092.637414367334	468.388564666307	371.546744124904	1053.578653456139	400.653672924385	356.253649534733	952.692989685946	303.842432293207	291.311538272186	975.334119086183	183.706496266985	359.972550860643	1129.033434746103	412.746425571728	607.913719724615	1065.522928852816	310.144224086549	681.049851260864	1116.224020560362	212.841397134502	626.993361301627	994.621018641276	39.804818346824	621.805070432763	1167.108547558956	100.825807802184	638.596075572596	1086.885574572861	35.183589808176	685.150238534066	1290.560737249290	55.492464676485	650.102500011877	826.291371306010	39.080313366676	387.072439563156	902.815384852156	35.885323826033	308.954612746348	986.439962211125	95.636484161785	340.329182033889	1114.970789107053	41.131704228880	313.503582587026	1286.810003228864	1179.068075718693	156.332265394262	1530.198017762236	1256.450960237336	189.732557195145	844.928153726469	1143.198686961584	708.586141352513	817.970198493726	880.540817216590	697.361794068012	
126	45.539285714286	871.180717785078	1010.404628812370	453.228281858898	1117.233408521996	1433.776469923875	332.614119598495	1160.800167744662	1360.810817753164	513.841909862698	1034.183865640167	1440.996816146826	655.058299585700	1039.794211555520	1491.294347307074	478.110849857799	1066.026703592386	940.199454519726	622.977975180136	1114.271512061069	956.694445402516	353.869567657748	1127.972512140551	746.425251768270	597.556811401954	1053.647650030338	633.705618353660	657.374367973508	1140.378556148813	585.829851174780	583.456773148485	1150.701390369861	501.652175334450	594.334651629159	1126.042110365781	729.996279918855	379.436849490485	1029.029004359312	616.471974876752	292.681428837559	1100.283418424349	537.946406552694	369.812334715552	1090.233182527800	467.808097243971	373.763985812411	1050.781723238690	400.643922184028	358.155169406589	949.015676820093	304.799887356874	292.876497621178	971.598788390860	183.907858070945	360.550535504078	1128.484746447327	411.239682767929	609.042008648468	1064.761765217396	308.927479032223	682.027683297131	1113.808295717554	211.592438989168	626.710170628056	990.330745119155	40.770312763876	620.936805908454	1163.076119945219	99.657840716346	637.674860682172	1082.255606819025	35.564832329492	684.632422982519	1286.094080408673	52.970141216100	649.560901875387	822.204244934387	39.418591837434	387.084457668485	898.762016615897	36.115811956190	309.065840490829	982.509703579770	95.762661764757	340.354987471659	1110.894155550365	41.004463789956	313.488152788632	1285.056822871556	1176.158961341968	162.865310528142	1528.783619212542	1254.007441790021	194.618523469970	849.137283287812	1141.170389312941	717.048399103277	825.122677217570	878.240206093942	707.830242312646	
127	45.560000000000	872.983461822029	1010.243019114750	459.762571225506	1116.984784234907	1433.975795208518	338.396964948127	1161.884874495391	1361.195951685995	519.399262242520	1035.795540232965	1441.074999601847	661.354589966924	1040.110561858660	1491.368104805648	484.108534012090	1068.857529838290	939.874947529723	628.194621750318	1115.631305326745	957.123955251336	358.995794686200	1130.364439553467	745.617317987963	600.797632752662	1055.844303698654	632.971927243309	660.396773384972	1141.680022348103	585.093775754052	585.583236720774	1150.775063703661	500.511774029172	595.971368240068	1125.993561130506	729.352345093943	383.039090850147	1027.092479788574	617.270157607720	296.146688688230	1098.046577932348	537.555190724636	372.189276411706	1087.464957488496	467.540755705579	375.816044890685	1047.705181979520	400.983039959709	359.935344119099	945.097441329598	306.024900179505	294.436396873113	967.836223307746	184.393061662372	361.085640245720	1128.033218942787	410.019832171266	610.360707471468	1063.913948198449	308.138319860140	683.297745129345	1110.987913412366	210.635480082459	626.678429191075	985.248424515848	41.858952780718	620.415352700242	1158.313796250806	98.835901240766	637.126782374401	1076.893133612545	36.150596088152	684.466931516741	1280.983531847077	50.886068349041	649.450359657423	818.157530345226	40.012025948052	387.098132037417	894.752489266967	36.503159690125	309.190694360597	978.678819868320	95.956251277851	340.352667725942	1106.849900798206	40.827785833590	313.465458585643	1282.441469306511	1172.797366832421	169.576322442077	1527.052015312788	1249.733349697992	199.436630643282	853.418316146155	1139.625980213484	726.065085401146	832.280617280276	876.502246760589	719.415710491941	
